<?xml version="1.0" standalone="no"?>
<!DOCTYPE svg PUBLIC "-//W3C//DTD SVG 20010904//EN"
 "http://www.w3.org/TR/2001/REC-SVG-20010904/DTD/svg10.dtd">
<svg version="1.0" xmlns="http://www.w3.org/2000/svg"
 width="1008.000000pt" height="1280.000000pt" viewBox="0 0 1008.000000 1280.000000"
 preserveAspectRatio="xMidYMid meet">
<g transform="translate(0.000000,1280.000000) scale(0.100000,-0.100000)"
fill="#000000" stroke="none">
<path d="M9593 12777 c-9 -19 -66 -94 -149 -195 l-27 -33 -73 6 c-85 8 -83 9
-114 -108 -10 -40 -36 -115 -57 -167 l-38 -95 -190 -128 c-104 -71 -242 -166
-306 -212 -64 -46 -190 -123 -280 -170 -433 -230 -499 -275 -912 -628 -147
-126 -197 -175 -239 -235 -134 -196 -408 -472 -608 -614 -74 -53 -203 -147
-287 -210 -83 -62 -240 -167 -349 -232 -108 -66 -231 -145 -273 -176 -121 -89
-247 -172 -371 -242 -188 -107 -382 -225 -424 -258 -21 -16 -43 -30 -49 -30
-6 0 -40 -15 -76 -32 l-66 -33 -209 -3 c-296 -4 -315 8 -206 134 130 150 234
284 327 418 53 78 125 176 160 219 70 86 81 130 43 171 -72 77 -127 126 -142
126 -6 0 -29 9 -52 19 -98 45 -148 60 -253 75 -61 8 -137 24 -170 35 -32 11
-139 31 -238 45 -99 15 -202 33 -228 41 -26 9 -100 22 -165 31 -64 8 -218 39
-342 69 -138 34 -265 59 -330 64 -190 17 -520 23 -595 10 -38 -6 -138 -13
-221 -16 -149 -4 -152 -4 -168 19 -9 12 -16 28 -16 36 0 29 -93 233 -111 243
-10 5 -22 22 -26 37 -3 15 -18 52 -31 82 -23 50 -26 72 -32 250 -8 208 -15
246 -77 377 -37 77 -165 210 -241 251 -32 17 -76 45 -98 62 l-39 32 -230 -4
-230 -4 -70 -33 c-38 -18 -93 -43 -121 -56 -29 -13 -62 -37 -76 -56 -44 -59
-99 -181 -124 -272 -13 -48 -31 -101 -39 -117 -9 -17 -22 -81 -30 -143 -20
-161 -67 -280 -161 -414 -24 -34 -44 -64 -44 -67 0 -4 11 -4 24 0 37 9 62 -3
76 -36 16 -38 6 -76 -35 -140 -38 -59 -50 -70 -81 -70 -17 0 -31 -18 -64 -84
-25 -50 -40 -91 -36 -101 10 -26 23 -9 30 40 8 50 29 68 74 63 25 -3 27 -7 30
-52 4 -60 -11 -99 -44 -117 -34 -18 -49 -46 -33 -65 6 -8 17 -14 25 -14 7 0
22 -10 34 -22 l20 -22 71 24 c51 16 76 20 87 13 37 -23 37 -123 1 -183 -24
-38 -60 -54 -166 -70 -73 -11 -127 -31 -113 -42 3 -2 25 -20 50 -39 25 -20 61
-44 80 -54 19 -9 56 -38 82 -64 66 -65 99 -93 130 -113 27 -17 28 -21 28 -99
0 -53 -5 -92 -16 -115 -17 -35 -91 -104 -178 -165 -48 -33 -123 -124 -147
-179 -17 -40 -6 -177 19 -234 23 -51 192 -226 264 -272 46 -29 159 -144 199
-201 17 -24 35 -43 41 -43 6 0 35 -24 63 -52 71 -73 133 -128 145 -128 5 0 17
-8 27 -19 34 -36 252 -139 390 -184 84 -27 240 -65 398 -97 197 -40 270 -58
300 -77 86 -53 312 -173 375 -198 36 -15 88 -37 115 -50 28 -13 115 -42 195
-65 297 -84 424 -149 660 -335 47 -37 109 -79 138 -93 29 -13 54 -28 57 -32 3
-4 28 -19 57 -34 29 -14 90 -62 136 -106 l83 -79 -17 -38 c-64 -147 -103 -376
-134 -798 -21 -273 -50 -564 -71 -693 -17 -104 -22 -202 -29 -537 -8 -378 -22
-641 -36 -690 -4 -11 -10 -123 -14 -250 -6 -206 -10 -240 -34 -325 -57 -203
-99 -413 -110 -555 -28 -338 -88 -915 -106 -1015 -5 -30 -23 -164 -40 -298
-46 -369 -48 -375 -137 -388 -65 -9 -80 -19 -97 -59 -21 -49 -87 -87 -208
-121 -92 -25 -107 -32 -148 -73 -25 -25 -69 -91 -99 -146 -117 -216 -131 -229
-251 -240 -158 -14 -237 -58 -260 -147 -19 -67 13 -161 79 -236 l28 -33 269
10 c148 6 456 16 684 21 591 15 651 23 707 97 23 30 25 39 21 106 -3 49 -18
111 -47 194 -32 91 -46 151 -55 235 -9 91 -16 119 -35 145 -21 28 -23 39 -18
88 3 31 17 78 30 104 14 26 39 103 57 172 17 68 54 194 81 279 28 85 64 198
80 250 17 52 67 173 110 268 44 95 91 215 104 265 64 242 135 766 135 1002 0
161 36 322 145 660 40 127 104 331 140 455 244 823 388 1296 414 1369 17 47
31 93 31 104 0 34 59 196 169 467 60 146 117 290 126 320 10 30 28 75 40 100
46 93 75 298 75 543 0 100 4 130 26 195 32 95 126 279 169 329 18 21 38 49 45
63 21 39 100 127 315 349 273 281 362 376 485 516 57 66 172 193 254 283 160
175 256 290 256 308 0 6 19 24 43 39 54 36 404 387 525 528 51 59 118 143 150
185 93 127 238 258 427 387 238 162 325 247 705 695 96 113 237 276 314 363
78 87 154 175 170 197 33 44 103 82 241 130 99 35 134 54 212 112 57 43 159
89 333 151 63 22 117 42 119 43 9 7 -39 208 -62 257 -13 29 -60 100 -103 156
-44 57 -87 116 -98 132 -10 16 -48 52 -84 79 -76 57 -121 66 -139 27z m-5923
-3116 c140 -5 267 -14 283 -20 38 -15 49 -47 30 -91 -9 -19 -30 -70 -48 -112
-34 -79 -116 -205 -140 -214 -8 -3 -23 -25 -34 -49 -11 -24 -29 -46 -39 -49
-11 -4 -31 -20 -45 -36 -15 -16 -39 -32 -54 -35 -28 -6 -86 -33 -133 -61 -43
-26 -120 -12 -208 38 l-77 43 -36 105 c-40 120 -74 186 -123 240 -19 21 -39
47 -44 57 -14 26 -26 136 -18 167 l6 26 213 -1 c116 0 327 -4 467 -8z"/>
</g>
</svg>
